HIERARCHY
ROOT Hips
{
	OFFSET 0.00000 0.00000 0.00000
	CHANNELS 6 Xposition Yposition Zposition Zrotation Yrotation Xrotation 
	JOINT LHipJoint
	{
		OFFSET 0 0 0
		CHANNELS 3 Zrotation Yrotation Xrotation
		JOINT LeftHip
		{
			OFFSET 1.37590 -1.78394 0.89329
			CHANNELS 3 Zrotation Yrotation Xrotation
			JOINT LeftKnee
			{
				OFFSET 2.47928 -6.81178 0.00000
				CHANNELS 3 Zrotation Yrotation Xrotation
				JOINT LeftAnkle
				{
					OFFSET 2.63345 -7.23535 0.00000
					CHANNELS 3 Zrotation Yrotation Xrotation
					JOINT LeftToe
					{
						OFFSET 0.23938 -0.65768 2.27012
						CHANNELS 3 Zrotation Yrotation Xrotation
						End Site
						{
							OFFSET 0.00000 -0.00000 1.18363
						}
					}
				}
			}
		}
	}
	JOINT RHipJoint
	{
		OFFSET 0 0 0
		CHANNELS 3 Zrotation Yrotation Xrotation
		JOINT RightHip
		{
			OFFSET -1.33617 -1.78394 0.89329
			CHANNELS 3 Zrotation Yrotation Xrotation
			JOINT RightKnee
			{
				OFFSET -2.56922 -7.05888 0.00000
				CHANNELS 3 Zrotation Yrotation Xrotation
				JOINT RightAnkle
				{
					OFFSET -2.56568 -7.04915 0.00000
					CHANNELS 3 Zrotation Yrotation Xrotation
					JOINT RightToe
					{
						OFFSET -0.27533 -0.75646 2.18105
						CHANNELS 3 Zrotation Yrotation Xrotation
						End Site
						{
							OFFSET -0.00000 -0.00000 1.15233
						}
					}
				}
			}
		}
	}
	JOINT lowerback
	{
		OFFSET 0 0 0
		CHANNELS 3 Zrotation Yrotation Xrotation
		JOINT Chest
		{
			OFFSET 0.06190 2.15152 -0.00935
			CHANNELS 3 Zrotation Yrotation Xrotation
			JOINT Chest2
			{
				OFFSET 0.06334 2.15332 0.00872
				CHANNELS 3 Zrotation Yrotation Xrotation
				JOINT lowerneck
				{
					OFFSET 0 0 0
					CHANNELS 3 Zrotation Yrotation Xrotation
					JOINT Neck
					{
						OFFSET -0.04202 1.66908 0.23524
						CHANNELS 3 Zrotation Yrotation Xrotation
						JOINT Head
						{
							OFFSET 0.07510 1.69357 -0.24440
							CHANNELS 3 Zrotation Yrotation Xrotation
							End Site
							{
								OFFSET 0.02556 1.71719 -0.11000
							}
						}
					}
				}
				JOINT LeftCollar
				{
					OFFSET 0 0 0
					CHANNELS 3 Zrotation Yrotation Xrotation
					JOINT LeftShoulder
					{
						OFFSET 3.67168 1.26306 -0.41342
CHANNELS 3 Zrotation Xrotation Yrotation
						JOINT LeftElbow
						{
OFFSET 0 -4.685100 -0.000000
CHANNELS 3 Zrotation Xrotation Yrotation
							JOINT LeftWrist
							{
OFFSET 0 -3.396260 -0.000000
CHANNELS 3 Zrotation Xrotation Yrotation
								JOINT lhand
								{
									OFFSET 0 0 0
CHANNELS 3 Zrotation Xrotation Yrotation
									JOINT LFingers
									{
OFFSET 0 -0.486080 -0.000000
CHANNELS 3 Zrotation Xrotation Yrotation
										End Site
										{
OFFSET 0 -0.391890 -0.000000
										}
									}
								}
								JOINT LThumb
								{
OFFSET 0 0.000000 0.000000
CHANNELS 3 Zrotation Xrotation Yrotation
									End Site
									{
OFFSET 0 -0.397870 0.397870
									}
								}
							}
						}
					}
				}
				JOINT RightCollar
				{
					OFFSET 0 0 0
					CHANNELS 3 Zrotation Yrotation Xrotation
					JOINT RightShoulder
					{
						OFFSET -3.04136 1.42992 -0.76390
CHANNELS 3 Zrotation Xrotation Yrotation
						JOINT RightElbow
						{
OFFSET 0 -5.555760 -0.000000
CHANNELS 3 Zrotation Xrotation Yrotation
							JOINT RightWrist
							{
OFFSET 0 -3.327740 -0.000000
CHANNELS 3 Zrotation Xrotation Yrotation
								JOINT rhand
								{
									OFFSET 0 0 0
CHANNELS 3 Zrotation Xrotation Yrotation
									JOINT RFingers
									{
OFFSET 0 -0.507630 -0.000000
CHANNELS 3 Zrotation Xrotation Yrotation
										End Site
										{
OFFSET 0 -0.409260 -0.000000
										}
									}
								}
								JOINT RThumb
								{
OFFSET 0 0.000000 0.000000
CHANNELS 3 Zrotation Xrotation Yrotation
									End Site
									{
OFFSET 0 -0.415510 0.415510
									}
								}
							}
						}
					}
				}
			}
		}
	}
}
MOTION
Frames: 14
Frame Time: .0083333
2.3757 17.6612 3.5866 -139.8540 -77.5263 147.8720 0.0000 0.0000 0.0000 -6.2615 -10.8005 -28.9052 1.1143 6.7062 18.8477 -0.4390 11.6748 -5.1852 0.1755 -2.6987 -7.4411 0.0000 0.0000 0.0000 30.8107 4.1059 6.0806 -1.8743 -8.5993 24.5496 -0.4931 -0.5318 -13.4693 -0.4702 4.3979 -12.1990 7.8450 3.3469 -2.3210 2.8035 4.3256 -4.1984 -1.4579 1.9029 -2.6924 -5.0646 -3.9111 -14.1920 6.9199 -5.5611 14.8331 2.4964 -2.3801 7.2216 -0.0000 -0.0000 0.0000 9.4531 2.3953 26.1771 35.0313 -44.8344 14.8354 25.3284 0.0029 -23.4592 0.0 0.0 0.0 -7.1250 0.0 0.0 -4.1793 55.5777 1.0864 -0.0000 -0.0000 0.0000 -16.7608 -21.2167 20.576 -35.2474 -44.988 -14.988 -21.7388 8.9353 23.9463 0.0 0.0 0.0 7.1250 0.0 -0.0 8.1517 55.3475 -2.0808
2.1914 17.6707 3.5923 -141.1910 -77.8433 149.0430 0.0000 0.0000 0.0000 -7.0711 -10.7223 -28.5436 1.1785 6.8901 19.3903 -0.4213 11.4239 -4.7222 0.1190 -2.2236 -6.1240 0.0000 0.0000 0.0000 30.0959 3.8983 5.6296 -2.1282 -9.1282 26.1972 -0.4214 -0.6141 -12.4999 -0.5083 4.5702 -12.6867 7.4659 3.2776 -2.3544 2.6491 4.2352 -4.1400 -1.4077 1.8746 -2.6318 -5.1106 -3.9357 -14.1541 7.0535 -5.6074 14.7664 2.5429 -2.3951 7.2018 -0.0000 0.0000 0.0000 8.8836 2.1984 26.4027 33.1414 -43.4384 13.5192 25.2377 0.3715 -23.7583 0.0 0.0 0.0 -7.1250 0.0 0.0 -4.3786 55.8755 1.1699 -0.0000 0.0000 0.0000 -16.2219 -20.6226 20.6089 -34.8181 -44.6818 -14.6853 -21.9605 9.122 23.9909 0.0 0.0 0.0 7.1250 0.0 -0.0 7.9378 55.4385 -2.0432
2.0071 17.6805 3.5985 -142.0850 -78.1299 149.7490 0.0000 0.0000 0.0000 -7.7882 -10.5740 -28.1420 1.2446 7.0737 19.9339 -0.3932 11.0358 -4.3290 0.0665 -1.6644 -4.5790 0.0000 0.0000 0.0000 29.4535 3.6156 5.0503 -2.4204 -9.6917 27.9841 -0.3381 -0.7736 -11.2919 -0.5187 4.6160 -12.8164 7.1957 3.1957 -2.3505 2.5254 4.1303 -4.0748 -1.3871 1.8350 -2.5814 -5.1467 -3.9547 -14.1155 7.1667 -5.6436 14.6928 2.5822 -2.4066 7.1782 0.0000 0.0000 0.0000 8.347 2.0422 26.4661 31.2082 -41.9068 12.2087 25.1096 0.9059 -24.134 0.0 0.0 0.0 -7.1250 0.0 0.0 -4.6491 56.2454 1.2841 0.0000 0.0000 0.0000 -15.6821 -19.9708 20.6815 -34.3285 -44.3267 -14.3421 -22.1437 9.2951 24.0272 0.0 0.0 0.0 7.1250 0.0 -0.0 7.7604 55.5133 -2.0113
1.8235 17.6898 3.6054 -142.5730 -78.3891 150.0340 0.0000 0.0000 0.0000 -8.4192 -10.3770 -27.7073 1.3126 7.2570 20.4789 -0.3601 10.5664 -4.0480 0.0276 -1.0726 -2.9487 0.0000 0.0000 0.0000 28.8780 3.2876 4.3431 -2.7519 -10.2822 29.8955 -0.2459 -1.0699 -9.8188 -0.4970 4.5197 -12.5435 7.0158 3.1019 -2.3202 2.4329 4.0104 -4.0012 -1.3851 1.7850 -2.5347 -5.1618 -3.9638 -14.0857 7.2489 -5.6642 14.6177 2.6095 -2.4117 7.1531 0.0000 -0.0000 0.0000 7.8327 1.9226 26.3527 29.2728 -40.2618 10.9366 24.9356 1.6139 -24.6041 0.0 0.0 0.0 -7.1250 0.0 0.0 -5.0103 56.7033 1.4398 0.0000 -0.0000 0.0000 -15.1574 -19.2806 20.8118 -33.7810 -43.9218 -13.9609 -22.2855 9.4526 24.0802 0.0 0.0 0.0 7.1250 0.0 -0.0 7.6327 55.5971 -1.9935
1.6411 17.6980 3.6129 -142.8180 -78.6309 150.0640 0.0000 0.0000 0.0000 -8.9989 -10.1575 -27.2260 1.3796 7.4325 21.0031 -0.3254 10.0532 -3.9144 0.0061 -0.5033 -1.3829 0.0000 0.0000 0.0000 28.3394 2.9471 3.5249 -3.1198 -10.8865 31.8982 -0.1485 -1.5854 -8.0407 -0.4496 4.3016 -11.9269 6.8844 2.9981 -2.2643 2.3629 3.8787 -3.9233 -1.3879 1.7274 -2.4975 -5.1550 -3.9622 -14.0637 7.3015 -5.6693 14.5501 2.6251 -2.4106 7.1292 0.0000 -0.0000 0.0000 7.3379 1.8565 26.0322 27.3723 -38.5319 9.7302 24.7453 2.4799 -25.1635 0.0 0.0 0.0 -7.1250 0.0 0.0 -5.4339 57.2491 1.6337 0.0000 -0.0000 0.0000 -14.6553 -18.5616 21.0076 -33.1727 -43.4623 -13.5407 -22.353 9.5767 24.1472 0.0 0.0 0.0 7.1250 0.0 -0.0 7.5887 55.6803 -1.9972
1.4602 17.7050 3.6211 -143.0670 -78.8746 150.0880 0.0000 0.0000 0.0000 -9.5836 -9.9447 -26.6858 1.4421 7.5918 21.4811 -0.2924 9.5438 -3.9401 0.0000 -0.0246 -0.0676 0.0000 0.0000 0.0000 27.7879 2.6229 2.6121 -3.5198 -11.4924 33.9590 -0.0551 -2.3483 -5.9395 -0.3786 3.9518 -10.9411 6.7423 2.8854 -2.1931 2.3037 3.7363 -3.8379 -1.3742 1.6649 -2.4628 -5.1273 -3.9499 -14.0533 7.3269 -5.6585 14.4832 2.6300 -2.4027 7.1050 -0.0000 -0.0000 0.0000 6.8542 1.8303 25.4949 25.5281 -36.7389 8.6038 24.503 3.471 -25.7846 0.0 0.0 0.0 -7.1250 0.0 0.0 -5.9541 57.8446 1.8763 -0.0000 -0.0000 0.0000 -14.1843 -17.8378 21.2711 -32.5010 -42.9429 -13.0809 -22.3512 9.6721 24.2398 0.0 0.0 0.0 7.1250 0.0 -0.0 7.6281 55.7755 -2.0254
1.2814 17.7106 3.6295 -143.5580 -79.1343 150.3540 0.0000 0.0000 0.0000 -10.2171 -9.7582 -26.0871 1.4971 7.7290 21.8938 -0.2626 9.0706 -4.1168 0.0024 0.3191 0.8768 0.0000 0.0000 0.0000 27.1840 2.3471 1.6220 -3.9476 -12.0903 36.0522 0.0203 -3.3329 -3.5255 -0.2935 3.4836 -9.6281 6.5354 2.7661 -2.1110 2.2437 3.5866 -3.7507 -1.3259 1.6003 -2.4362 -5.0873 -3.9274 -14.0457 7.3366 -5.6330 14.4136 2.6293 -2.3883 7.0787 0.0000 0.0000 0.0000 6.3802 1.8466 24.7327 23.7545 -34.9036 7.5656 24.1655 4.5542 -26.4224 0.0 0.0 0.0 -7.1250 0.0 0.0 -6.6048 58.4314 2.1758 0.0000 0.0000 0.0000 -13.7485 -17.1192 21.6066 -31.7608 -42.3556 -12.5794 -22.3005 9.7414 24.339 0.0 0.0 0.0 7.1250 0.0 -0.0 7.7220 55.8675 -2.0678
1.1052 17.7151 3.6379 -144.4800 -79.4270 151.0500 0.0000 0.0000 0.0000 -10.9424 -9.5953 -25.4344 1.5420 7.8386 22.2250 -0.2344 8.6268 -4.4184 0.0068 0.5330 1.4645 0.0000 0.0000 0.0000 26.5006 2.1370 0.5748 -4.3994 -12.6737 38.1592 0.0628 -4.5035 -0.8359 -0.2101 2.9512 -8.1430 6.2230 2.6388 -2.0214 2.1742 3.4279 -3.6637 -1.2293 1.5337 -2.4187 -5.0407 -3.8947 -14.0351 7.3391 -5.5932 14.3371 2.6268 -2.3674 7.0483 -0.0000 0.0000 0.0000 5.9133 1.8863 23.7967 22.0470 -33.0301 6.6114 23.5348 5.7216 -26.9887 0.0 0.0 0.0 -7.1250 0.0 0.0 -7.5678 58.8714 2.5751 -0.0000 0.0000 0.0000 -13.3479 -16.4199 22.0124 -30.9493 -41.6933 -12.0361 -22.1905 9.7941 24.438 0.0 0.0 0.0 7.1250 0.0 -0.0 7.8790 55.9468 -2.1254
0.9310 17.7188 3.6463 -146.0240 -79.7501 152.3710 0.0000 0.0000 0.0000 -11.7900 -9.4412 -24.7319 1.5757 7.9198 22.4708 -0.2069 8.2136 -4.8267 0.0091 0.6156 1.6917 0.0000 0.0000 0.0000 25.7161 2.0073 -0.5065 -4.8736 -13.2400 40.2738 0.0582 -5.7686 2.0214 -0.1249 2.2779 -6.2744 5.7869 2.5058 -1.9266 2.0859 3.2623 -3.5762 -1.0833 1.4666 -2.4083 -4.9905 -3.8510 -14.0236 7.3418 -5.5388 14.2554 2.6253 -2.3393 7.0151 -0.0000 -0.0000 0.0000 5.4513 1.9432 22.7116 20.4104 -31.1336 5.742 22.5915 7.0037 -27.4317 0.0 0.0 0.0 -7.1250 0.0 0.0 -8.8333 59.1064 3.0595 -0.0000 -0.0000 0.0000 -12.9766 -15.745 22.4935 -30.0670 -40.9507 -11.4535 -22.0448 9.8464 24.504 0.0 0.0 0.0 7.1250 0.0 -0.0 8.0604 55.9847 -2.1822
0.7592 17.7217 3.6546 -148.2290 -80.1000 154.3600 0.0000 0.0000 0.0000 -12.7559 -9.2805 -24.0062 1.5996 7.9768 22.6438 -0.1797 7.8328 -5.3021 0.0084 0.5920 1.6268 0.0000 0.0000 0.0000 24.8400 1.9584 -1.6224 -5.3718 -13.7906 42.4052 0.0031 -7.0659 4.8765 -0.0518 1.4685 -4.0389 5.2300 2.3647 -1.8346 1.9785 3.0860 -3.4897 -0.8891 1.3969 -2.4008 -4.9376 -3.7954 -14.0095 7.3483 -5.4686 14.1643 2.6264 -2.3034 6.9774 -0.0000 0.0000 0.0000 4.9857 2.0068 21.5101 18.8583 -29.2423 4.9615 21.3468 8.3592 -27.5981 0.0 0.0 0.0 -7.1250 0.0 0.0 -10.2904 58.9872 3.541 -0.0000 0.0000 0.0000 -12.6332 -15.1031 23.0518 -29.1144 -40.1221 -10.8344 -21.8556 9.916 24.5423 0.0 0.0 0.0 7.1250 0.0 -0.0 8.2760 55.9846 -2.2411
0.5898 17.7242 3.6627 -151.0470 -80.4652 156.9740 0.0000 0.0000 0.0000 -13.8143 -9.1053 -23.2696 1.6150 8.0133 22.7545 -0.1524 7.4814 -5.8102 0.0061 0.5056 1.3892 0.0000 0.0000 0.0000 23.8943 1.9709 -2.7724 -5.8952 -14.3260 44.5595 -0.0896 -8.4322 7.5419 -0.0080 0.5761 -1.5829 4.5808 2.2131 -1.7389 1.8518 2.8954 -3.4097 -0.6628 1.3214 -2.4038 -4.8786 -3.7275 -13.9945 7.3593 -5.3839 14.0723 2.6294 -2.2599 6.9383 -0.0000 0.0000 0.0000 4.5045 2.0701 20.2452 17.4042 -27.3876 4.2716 20.0014 9.8727 -27.4164 0.0 0.0 0.0 -7.1250 0.0 0.0 -11.6524 58.4982 3.8802 -0.0000 0.0000 0.0000 -12.3047 -14.489 23.6776 -28.0943 -39.2029 -10.1832 -21.5651 9.9923 24.5381 0.0 0.0 0.0 7.1250 0.0 -0.0 8.5801 55.9201 -2.3108
0.4228 17.7265 3.6705 -154.3210 -80.8301 160.0610 0.0000 0.0000 0.0000 -14.9194 -8.9121 -22.5378 1.6238 8.0341 22.8177 -0.1246 7.1466 -6.3135 0.0038 0.3973 1.0918 0.0000 0.0000 0.0000 22.9181 2.0161 -3.9707 -6.4478 -14.8487 46.7537 -0.1890 -9.8432 9.7370 -0.0013 -0.2311 0.6349 3.8787 2.0514 -1.6491 1.7153 2.6896 -3.3288 -0.4155 1.2391 -2.4023 -4.8167 -3.6516 -13.9925 7.3746 -5.2886 13.9763 2.6341 -2.2106 6.8997 -0.0000 -0.0000 0.0000 3.9829 2.1025 19.0142 16.0591 -25.6007 3.6714 18.6453 11.6633 -26.7709 0.0 0.0 0.0 -7.1250 0.0 0.0 -12.7452 57.5557 3.9613 -0.0000 -0.0000 0.0000 -11.9926 -13.9172 24.3504 -27.0112 -38.1898 -9.506 -21.1451 10.0864 24.5081 0.0 0.0 0.0 7.1250 0.0 -0.0 9.0083 55.8029 -2.4018
0.2585 17.7289 3.6777 -157.7280 -81.1779 163.3010 0.0000 0.0000 0.0000 -15.9966 -8.7005 -21.8211 1.6276 8.0430 22.8448 -0.0955 6.8071 -6.7987 0.0019 0.2835 0.7788 0.0000 0.0000 0.0000 21.9780 2.0679 -5.2258 -7.0284 -15.3558 48.9817 -0.2609 -11.2695 11.3056 -0.0172 -0.8456 2.3242 3.1866 1.8800 -1.5582 1.5813 2.4692 -3.2519 -0.1701 1.1483 -2.4023 -4.7500 -3.5709 -14.0013 7.3917 -5.1876 13.8796 2.6392 -2.1578 6.8624 0.0000 0.0000 0.0000 3.3977 2.0971 17.9225 14.8418 -23.9253 3.1615 17.5 13.9116 -25.7342 0.0 0.0 0.0 -7.1250 0.0 0.0 -13.3905 56.287 3.7538 0.0000 0.0000 0.0000 -11.69 -13.3798 25.0502 -25.8691 -37.0792 -8.8086 -20.5977 10.1995 24.44 0.0 0.0 0.0 7.1250 0.0 -0.0 9.5510 55.6213 -2.5061
0.0966 17.7321 3.6842 -160.9180 -81.5023 166.3440 0.0000 0.0000 0.0000 -16.9816 -8.4752 -21.1163 1.6270 8.0416 22.8404 -0.0650 6.4595 -7.2715 0.0009 0.1936 0.5319 0.0000 0.0000 0.0000 21.1330 2.1005 -6.5358 -7.6305 -15.8406 51.2205 -0.2734 -12.6901 12.1314 -0.0369 -1.2399 3.4092 2.5592 1.7019 -1.4673 1.4639 2.2379 -3.1726 0.0579 1.0500 -2.3950 -4.6832 -3.4906 -14.0289 7.4114 -5.0866 13.7792 2.6448 -2.1044 6.8273 0.0000 -0.0000 0.0000 2.727 2.0369 17.0667 13.7646 -22.3972 2.7378 16.7277 16.7707 -24.4232 0.0 0.0 0.0 -7.1250 0.0 0.0 -13.5226 54.8364 3.3121 0.0000 -0.0000 0.0000 -11.3931 -12.8825 25.7404 -24.6753 -35.8702 -8.0989 -19.9465 10.3407 24.3226 0.0 0.0 0.0 7.1250 0.0 -0.0 10.1764 55.3704 -2.6104
